<svg xmlns="http://www.w3.org/2000/svg" version="1.1" xmlns:xlink="http://www.w3.org/1999/xlink" xmlns:svgjs="http://svgjs.dev/svgjs" width="1000" height="750" viewBox="0 0 1000 750"><rect width="1000" height="750" fill="#ffffff"></rect><g transform="matrix(0.834,0,0,0.834,82.49455159666473,306.73744022600755)"><svg viewBox="0 0 396 65" data-background-color="#ffffff" preserveAspectRatio="xMidYMid meet" height="164" width="1000" xmlns="http://www.w3.org/2000/svg" xmlns:xlink="http://www.w3.org/1999/xlink"><g id="tight-bounds" transform="matrix(1,0,0,1,0.23999708359804117,-0.05961227793943635)"><svg viewBox="0 0 395.52 65.11922403767369" height="65.11922403767369" width="395.52"><g><svg viewBox="0 0 534.2577542994138 87.96129246583726" height="65.11922403767369" width="395.52"><g transform="matrix(1,0,0,1,138.7377542994138,12.156734342239453)"><svg viewBox="0 0 395.52 63.647823781358355" height="63.647823781358355" width="395.52"><g id="textblocktransform"><svg viewBox="0 0 395.52 63.647823781358355" height="63.647823781358355" width="395.52" id="textblock"><g><svg viewBox="0 0 395.52 63.647823781358355" height="63.647823781358355" width="395.52"><g transform="matrix(1,0,0,1,0,0)"><svg width="395.52" viewBox="0.75 -38.849998474121094 245.1199951171875 39.44999694824219" height="63.647823781358355" data-palette-color="#19072f"><path d="M11.3-35Q14.05-35 16.18-34.02 18.3-33.05 20.1-31.05L20.1-31.05 17.7-28.45Q16.15-29.95 14.65-30.63 13.15-31.3 11.35-31.3L11.35-31.3Q9.2-31.3 7.88-29.93 6.55-28.55 6.55-26.3L6.55-26.3Q6.55-24.1 7.83-22.7 9.1-21.3 12.65-19.95L12.65-19.95Q16.75-18.4 18.85-16.1 20.95-13.8 20.95-9.55L20.95-9.55Q20.95-6.8 19.68-4.48 18.4-2.15 16.05-0.78 13.7 0.6 10.6 0.6L10.6 0.6Q7.5 0.6 5.1-0.55 2.7-1.7 0.75-3.85L0.75-3.85 3.2-6.45Q4.95-4.85 6.68-4 8.4-3.15 10.5-3.15L10.5-3.15Q13.1-3.15 14.65-4.85 16.2-6.55 16.2-9.45L16.2-9.45Q16.2-11.95 14.95-13.45 13.7-14.95 10.3-16.2L10.3-16.2Q5.95-17.85 3.93-20.2 1.9-22.55 1.9-26.1L1.9-26.1Q1.9-28.55 3.1-30.6 4.3-32.65 6.45-33.83 8.6-35 11.3-35L11.3-35ZM36.1-3.95L37.8-1.2Q35.55 0.6 32.75 0.6L32.75 0.6Q29.8 0.6 28.17-1.15 26.55-2.9 26.55-5.85L26.55-5.85 26.55-22.9 23-22.9 23-26.35 26.55-26.35 26.55-32.3 30.95-32.85 30.95-26.35 36.05-26.35 35.6-22.9 30.95-22.9 30.95-5.8Q30.95-3.05 33.3-3.05L33.3-3.05Q34.1-3.05 34.7-3.25 35.3-3.45 36.1-3.95L36.1-3.95ZM51.55-26.9Q52.65-26.9 53.55-26.6L53.55-26.6 52.8-22.35Q51.8-22.6 51-22.6L51-22.6Q49.05-22.6 47.8-20.85 46.55-19.1 45.84-15.5L45.84-15.5 45.84 0 41.45 0 41.45-26.35 45.25-26.35 45.59-21.45Q47.45-26.9 51.55-26.9L51.55-26.9ZM74.64-13.95Q74.64-12.85 74.54-11.65L74.54-11.65 60.74-11.65Q60.94-6.9 62.32-4.95 63.69-3 66.24-3L66.24-3Q67.89-3 69.19-3.53 70.49-4.05 71.89-5.2L71.89-5.2 73.84-2.55Q70.54 0.6 66.09 0.6L66.09 0.6Q61.39 0.6 58.79-2.88 56.19-6.35 56.19-12.9L56.19-12.9Q56.19-19.45 58.67-23.18 61.14-26.9 65.64-26.9L65.64-26.9Q69.99-26.9 72.32-23.63 74.64-20.35 74.64-13.95L74.64-13.95ZM70.39-14.9L70.39-15.25Q70.39-19.55 69.24-21.5 68.09-23.45 65.64-23.45L65.64-23.45Q63.44-23.45 62.19-21.48 60.94-19.5 60.74-14.9L60.74-14.9 70.39-14.9ZM95.49-5.6Q95.49-4.2 95.89-3.53 96.29-2.85 97.19-2.45L97.19-2.45 96.24 0.6Q94.39 0.3 93.32-0.58 92.24-1.45 91.79-3.2L91.79-3.2Q89.64 0.6 85.49 0.6L85.49 0.6Q82.24 0.6 80.32-1.58 78.39-3.75 78.39-7.35L78.39-7.35Q78.39-11.55 80.99-13.78 83.59-16 88.54-16L88.54-16 91.14-16 91.14-18.4Q91.14-21 90.12-22.2 89.09-23.4 86.94-23.4L86.94-23.4Q84.39-23.4 80.99-22.05L80.99-22.05 79.89-25.15Q83.94-26.9 87.49-26.9L87.49-26.9Q91.54-26.9 93.52-24.73 95.49-22.55 95.49-18.6L95.49-18.6 95.49-5.6ZM86.39-2.7Q89.49-2.7 91.14-6.9L91.14-6.9 91.14-13.05 89.04-13.05Q85.89-13.05 84.42-11.7 82.94-10.35 82.94-7.55L82.94-7.55Q82.94-5.15 83.84-3.93 84.74-2.7 86.39-2.7L86.39-2.7ZM125.04-26.9Q127.69-26.9 129.29-24.83 130.89-22.75 130.89-19.35L130.89-19.35 130.89 0 126.59 0 126.59-18.8Q126.59-21.3 125.91-22.4 125.24-23.5 123.94-23.5L123.94-23.5Q121.29-23.5 119.04-18.8L119.04-18.8 119.04 0 114.74 0 114.74-18.8Q114.74-23.5 112.09-23.5L112.09-23.5Q110.69-23.5 109.41-22.25 108.14-21 107.14-18.8L107.14-18.8 107.14 0 102.84 0 102.84-26.35 106.64-26.35 106.94-22.55Q109.44-26.9 113.19-26.9L113.19-26.9Q115.19-26.9 116.56-25.68 117.94-24.45 118.54-22.2L118.54-22.2Q121.24-26.9 125.04-26.9L125.04-26.9ZM153.09-34.45L157.54-34.45 148.84 0 143.59 0 134.74-34.45 139.34-34.45 146.28-4.9 153.09-34.45ZM161.58-26.35L165.98-26.35 165.98 0 161.58 0 161.58-26.35ZM163.73-38.85Q165.08-38.85 165.88-38 166.68-37.15 166.68-35.8L166.68-35.8Q166.68-34.55 165.86-33.7 165.03-32.85 163.73-32.85L163.73-32.85Q162.43-32.85 161.61-33.7 160.78-34.55 160.78-35.8L160.78-35.8Q160.78-37.1 161.61-37.98 162.43-38.85 163.73-38.85L163.73-38.85ZM179.68-26.9Q184.03-26.9 187.13-23.95L187.13-23.95 185.23-21.4Q183.83-22.45 182.53-22.98 181.23-23.5 179.78-23.5L179.78-23.5Q178.03-23.5 177-22.53 175.98-21.55 175.98-19.85L175.98-19.85Q175.98-18.2 176.98-17.25 177.98-16.3 180.78-15.3L180.78-15.3Q184.38-14 186.08-12.2 187.78-10.4 187.78-7.3L187.78-7.3Q187.78-3.55 185.25-1.48 182.73 0.6 178.98 0.6L178.98 0.6Q173.98 0.6 170.63-2.85L170.63-2.85 172.93-5.3Q175.73-2.85 178.88-2.85L178.88-2.85Q180.88-2.85 182.08-3.95 183.28-5.05 183.28-7.05L183.28-7.05Q183.28-8.4 182.83-9.25 182.38-10.1 181.28-10.8 180.18-11.5 178.08-12.25L178.08-12.25Q174.58-13.55 173.08-15.33 171.58-17.1 171.58-19.7L171.58-19.7Q171.58-21.7 172.6-23.35 173.63-25 175.48-25.95 177.33-26.9 179.68-26.9L179.68-26.9ZM192.93-26.35L197.33-26.35 197.33 0 192.93 0 192.93-26.35ZM195.08-38.85Q196.43-38.85 197.23-38 198.03-37.15 198.03-35.8L198.03-35.8Q198.03-34.55 197.2-33.7 196.38-32.85 195.08-32.85L195.08-32.85Q193.78-32.85 192.95-33.7 192.13-34.55 192.13-35.8L192.13-35.8Q192.13-37.1 192.95-37.98 193.78-38.85 195.08-38.85L195.08-38.85ZM213.13-26.9Q217.82-26.9 220.4-23.43 222.97-19.95 222.97-13.2L222.97-13.2Q222.97-6.85 220.35-3.13 217.72 0.6 213.07 0.6L213.07 0.6Q208.42 0.6 205.82-3.05 203.22-6.7 203.22-13.15L203.22-13.15Q203.22-19.8 205.82-23.35 208.42-26.9 213.13-26.9L213.13-26.9ZM213.13-23.35Q210.47-23.35 209.17-20.98 207.88-18.6 207.88-13.15L207.88-13.15Q207.88-7.75 209.17-5.35 210.47-2.95 213.07-2.95L213.07-2.95Q215.72-2.95 217.03-5.35 218.32-7.75 218.32-13.2L218.32-13.2Q218.32-18.6 217.03-20.98 215.72-23.35 213.13-23.35L213.13-23.35ZM239.62-26.9Q242.47-26.9 244.17-24.85 245.87-22.8 245.87-19.35L245.87-19.35 245.87 0 241.47 0 241.47-18.75Q241.47-21.3 240.75-22.38 240.02-23.45 238.57-23.45L238.57-23.45Q235.72-23.45 233.27-18.55L233.27-18.55 233.27 0 228.87 0 228.87-26.35 232.67-26.35 233.02-22.4Q234.32-24.6 235.87-25.75 237.42-26.9 239.62-26.9L239.62-26.9Z" opacity="1" transform="matrix(1,0,0,1,0,0)" fill="#000000" class="undefined-text-0" data-fill-palette-color="primary" id="text-0"></path></svg></g></svg></g></svg></g></svg></g><g><svg viewBox="0 0 123.71203065240586 87.96129246583726" height="87.96129246583726" width="123.71203065240586"><g><svg xmlns="http://www.w3.org/2000/svg" xmlns:xlink="http://www.w3.org/1999/xlink" version="1.1" x="0" y="0" viewBox="6.85699987411499 19.32496452331543 86.28500366210938 61.350059509277344" enable-background="new 0 0 100 100" xml:space="preserve" height="87.96129246583726" width="123.71203065240586" class="icon-icon-0" data-fill-palette-color="accent" id="icon-0"><g fill="#1c0e0e" data-fill-palette-color="accent"><path d="M91.648 29.694c-1.056-4.57-4.81-7.938-9.327-8.441-10.699-1.191-21.527-1.934-32.309-1.928-10.782-0.006-21.611 0.737-32.311 1.928-4.517 0.503-8.269 3.871-9.324 8.441-1.501 6.506-1.52 13.607-1.52 20.307 0 6.699 0 13.8 1.502 20.307 1.056 4.566 4.808 7.938 9.325 8.438 10.699 1.191 21.527 1.934 32.31 1.929 10.782 0.005 21.611-0.737 32.309-1.929 4.518-0.501 8.271-3.872 9.327-8.438 1.501-6.507 1.512-13.608 1.512-20.307C93.142 43.302 93.15 36.2 91.648 29.694M64.711 51.988l-20.34 10.997c-2.022 1.094-3.677 0.107-3.677-2.191V39.207c0-2.299 1.654-3.286 3.677-2.192l20.34 10.998C66.734 49.105 66.734 50.895 64.711 51.988" fill="#000000" data-fill-palette-color="accent"></path></g></svg></g></svg></g></svg></g><defs></defs></svg><rect width="395.52" height="65.11922403767369" fill="none" stroke="none" visibility="hidden"></rect></g></svg></g></svg>